# xmcd
#
# Track frame offsets:
#   150
#   19710
#   33625
#   45367
#   66117
#   77542
#   93947
#   112797
#   132397
#   146625
#   167180
#   187272
#   202430
#   217260
#   231587
#   248492
#   263455
#   277122
#   289207
#   306287
#
# Disc length: 4174 seconds
#
# Revision: 0
# Processed by: cddbd v1.5.2PL0 Copyright (c) Steve Scherf et al.
# Submitted via: uFREEDB ActiveX Control 1.5
#
DISCID=32104c14
DTITLE=O MELHOR DA VAQUEIJADA - O MELHOR DA VAQUEIJADA
DYEAR=1900
DGENRE=Country
TTITLE0=SOU QUEM SEI QUEM SOU
TTITLE1=MULHER DO ANDAR FACEIRO
TTITLE2=TRAJETO DO ABOIO
TTITLE3=AONDE TEM GADO, TEM VAQUEIRO
TTITLE4=FALSO AMOR NÃO ME CONVÉM
TTITLE5=AMOR À PRIMEIRA VISTA
TTITLE6=BRAVO VAQUEIRO
TTITLE7=SONHO DO VAQUEIRO
TTITLE8=CABRA DA PESTE
TTITLE9=VAQUEIRO NORDESTINO
TTITLE10=MEU AVÔ FOI VAQUEIRO
TTITLE11=ESSA MULHER É LINDA
TTITLE12=NO PROGRAMA DE JÔ SOARES
TTITLE13=MORENINHA
TTITLE14=SECA DO MARANHÃO
TTITLE15=VAQUEIRO, CAVALO E BOI
TTITLE16=MULHER DO XORTE APERTADO
TTITLE17=ALEGRIA DE VAQUEIRO
TTITLE18=PÉ DE UMBUZEIRO
TTITLE19=ORAÇÃO DO CAVALO DE VAQUEIJADA
EXTD=
EXTT0=
EXTT1=
EXTT2=
EXTT3=
EXTT4=
EXTT5=
EXTT6=
EXTT7=
EXTT8=
EXTT9=
EXTT10=
EXTT11=
EXTT12=
EXTT13=
EXTT14=
EXTT15=
EXTT16=
EXTT17=
EXTT18=
EXTT19=
PLAYORDER=
